<svg width="96" height="96" viewBox="0 0 96 96" fill="none" xmlns="http://www.w3.org/2000/svg">
  <!-- Background circle -->
  <circle cx="48" cy="48" r="48" fill="url(#dashboardGradient)"/>
  
  <!-- Dashboard grid -->
  <rect x="20" y="20" width="24" height="24" rx="4" fill="white" opacity="0.9"/>
  <rect x="52" y="20" width="24" height="16" rx="4" fill="white" opacity="0.7"/>
  <rect x="52" y="44" width="24" height="16" rx="4" fill="white" opacity="0.7"/>
  <rect x="20" y="52" width="24" height="24" rx="4" fill="white" opacity="0.5"/>
  
  <!-- Chart bars -->
  <rect x="26" y="32" width="3" height="8" fill="#00ff88"/>
  <rect x="31" y="28" width="3" height="12" fill="#00ff88"/>
  <rect x="36" y="30" width="3" height="10" fill="#00ff88"/>
  
  <!-- Chart line -->
  <path d="M58 28 L62 32 L66 30 L70 34" stroke="#00ff88" stroke-width="2" fill="none"/>
  <circle cx="58" cy="28" r="2" fill="#00ff88"/>
  <circle cx="62" cy="32" r="2" fill="#00ff88"/>
  <circle cx="66" cy="30" r="2" fill="#00ff88"/>
  <circle cx="70" cy="34" r="2" fill="#00ff88"/>
  
  <!-- Pie chart -->
  <circle cx="64" cy="60" r="8" fill="none" stroke="#00ff88" stroke-width="3"/>
  <path d="M64 52 A8 8 0 0 1 70 60 L64 60 Z" fill="#00ff88"/>
  
  <!-- Settings gear -->
  <circle cx="32" cy="64" r="6" fill="none" stroke="#00ff88" stroke-width="2"/>
  <circle cx="32" cy="64" r="2" fill="#00ff88"/>
  <path d="M32 58 L32 50 M32 78 L32 70 M26 64 L18 64 M46 64 L38 64" stroke="#00ff88" stroke-width="1.5"/>
  
  <!-- Gradient definition -->
  <defs>
    <linearGradient id="dashboardGradient" x1="0%" y1="0%" x2="100%" y2="100%">
      <stop offset="0%" style="stop-color:#00ff88;stop-opacity:1" />
      <stop offset="100%" style="stop-color:#00cc6a;stop-opacity:1" />
    </linearGradient>
  </defs>
</svg>
