<svg width="96" height="96" viewBox="0 0 96 96" fill="none" xmlns="http://www.w3.org/2000/svg">
  <!-- Background circle -->
  <circle cx="48" cy="48" r="48" fill="url(#surebetsGradient)"/>
  
  <!-- Target/bullseye -->
  <circle cx="48" cy="48" r="32" fill="none" stroke="white" stroke-width="3" opacity="0.9"/>
  <circle cx="48" cy="48" r="24" fill="none" stroke="white" stroke-width="2" opacity="0.8"/>
  <circle cx="48" cy="48" r="16" fill="none" stroke="white" stroke-width="2" opacity="0.7"/>
  <circle cx="48" cy="48" r="8" fill="white" opacity="0.9"/>
  
  <!-- Crosshairs -->
  <line x1="48" y1="12" x2="48" y2="20" stroke="white" stroke-width="2" opacity="0.8"/>
  <line x1="48" y1="76" x2="48" y2="84" stroke="white" stroke-width="2" opacity="0.8"/>
  <line x1="12" y1="48" x2="20" y2="48" stroke="white" stroke-width="2" opacity="0.8"/>
  <line x1="76" y1="48" x2="84" y2="48" stroke="white" stroke-width="2" opacity="0.8"/>
  
  <!-- Money symbols -->
  <text x="24" y="32" font-family="Arial, sans-serif" font-size="12" font-weight="bold" fill="white" opacity="0.8">$</text>
  <text x="68" y="32" font-family="Arial, sans-serif" font-size="12" font-weight="bold" fill="white" opacity="0.8">€</text>
  <text x="24" y="68" font-family="Arial, sans-serif" font-size="12" font-weight="bold" fill="white" opacity="0.8">£</text>
  <text x="68" y="68" font-family="Arial, sans-serif" font-size="12" font-weight="bold" fill="white" opacity="0.8">¥</text>
  
  <!-- Arrow pointing to center -->
  <path d="M48 8 L52 16 L50 16 L50 20 L46 20 L46 16 L44 16 Z" fill="white" opacity="0.9"/>
  
  <!-- Success checkmark in center -->
  <path d="M44 48 L47 51 L52 44" stroke="#00ff88" stroke-width="3" fill="none" stroke-linecap="round" stroke-linejoin="round"/>
  
  <!-- Gradient definition -->
  <defs>
    <linearGradient id="surebetsGradient" x1="0%" y1="0%" x2="100%" y2="100%">
      <stop offset="0%" style="stop-color:#00ff88;stop-opacity:1" />
      <stop offset="50%" style="stop-color:#00cc6a;stop-opacity:1" />
      <stop offset="100%" style="stop-color:#00994d;stop-opacity:1" />
    </linearGradient>
  </defs>
</svg>
