<?xml version="1.0" encoding="UTF-8"?>
<!DOCTYPE svg PUBLIC "-//W3C//DTD SVG 1.1//EN" "http://www.w3.org/Graphics/SVG/1.1/DTD/svg11.dtd">
<!-- Creator: CorelDRAW -->
<svg xmlns="http://www.w3.org/2000/svg" xml:space="preserve" width="118.856mm" height="116.016mm" version="1.1" style="shape-rendering:geometricPrecision; text-rendering:geometricPrecision; image-rendering:optimizeQuality; fill-rule:evenodd; clip-rule:evenodd"
viewBox="0 0 5683.49 5547.71"
 xmlns:xlink="http://www.w3.org/1999/xlink"
 xmlns:xodm="http://www.corel.com/coreldraw/odm/2003">
 <defs>
  <style type="text/css">
   <![CDATA[
    .fil0 {fill:#FEFEFE}
    .fil2 {fill:#00A758}
    .fil1 {fill:#363434}
   ]]>
  </style>
 </defs>
 <g id="Camada_x0020_1">
  <metadata id="CorelCorpID_0Corel-Layer"/>
  <rect class="fil0" x="-0" width="5683.49" height="5547.71" rx="771.35" ry="771.35"/>
  <path class="fil1" d="M3067.69 2163.81c-98.26,-47.15 -190.89,-105.62 -297.25,-136.56 -35.48,-10.32 -72.57,-25.64 -109.41,-35.19 -76.15,-19.74 -150.44,-40.63 -232.38,-56.83 -158.84,-31.4 -323.54,-64.22 -479.87,-103.07 -95.05,-23.62 -184.26,-51.41 -271.37,-90.14 -48.79,-21.7 -95.81,-46.71 -138.44,-78.46 -57.75,-43 -107.12,-108.11 -107.12,-200.17 0,-59.02 43.68,-138.63 73.37,-170.65 19.58,-21.12 42.73,-38.82 65.99,-56.01 23.93,-17.69 50.52,-30.92 77.55,-44.47 266.22,-133.45 644.3,-97.36 894.69,27.17l101.04 48.09c64.22,32.59 127.04,73.22 188.48,109.76 31.47,18.73 64.7,38.96 94.64,59.01l89.13 -118.73c15.72,-21.06 27.44,-39.73 43.16,-60.78 16.27,-21.81 30.08,-39.98 45.76,-62.69l169.91 -250.36c-41.38,-61.8 -383.41,-253.18 -490.59,-295.69 -97.07,-38.51 -191.39,-69.76 -301.32,-91.82 -305,-61.2 -684.62,-51.22 -977.58,32.43 -67.57,19.29 -130.9,44.41 -191.7,74.91 -59.06,29.62 -115.1,63.88 -167.86,103.28 -104.19,77.82 -184.96,177.93 -243.36,294.38 -131.31,261.81 -147.99,671.24 41.31,921.22l65.24 79.36c21.5,27.84 47.61,46.93 72.99,71.61 100.68,97.86 317.13,206.15 444.96,241.9 102.89,28.77 204.86,56.06 311.28,77.34l407.48 80.56c29.86,5.88 53,13.17 80.55,18.86 99.93,20.63 202.43,49.58 290.32,98.31 35.12,19.47 84.21,68.6 120.53,78.3l643.59 -743.71c41,-53.01 93.92,-100.39 135.58,-153.63l254.6 -296.71c7.23,-8.12 9.92,-9.54 17.21,-18.93l306.03 -353.73c6.74,-7.96 11,-10.83 17.39,-18.76 7.25,-9 7.16,-10.61 16.23,-19.92l67.87 -76.73c83.26,-88.97 156.31,-186.75 239.5,-275.65l33.39 -38.91c48.53,-60.27 101.66,-114.66 151.63,-173.73l52.19 -60.78c8.88,-9.33 8.98,-10.81 16.28,-19.87 48.84,-60.62 104.16,-115.84 152.33,-177.54 13.73,-17.59 59.95,-64.12 65.23,-83.89 -31.54,21.13 -61.87,59.14 -89.33,86.9l-83.48 92.77c-18.37,18.17 -43.08,40.05 -58.32,59.17l-169.83 182.64c-19.57,20.34 -43.89,40.38 -60.64,61.37 -26.16,32.79 -58.55,59.17 -84.51,91.72l-403.52 427.95c-11.17,13.94 -14.57,18.3 -27.56,31.18l-88.22 88.02c-12.21,12.34 -15.12,19.54 -26.93,31.81l-459.53 484.91c-32.78,42.45 -134.86,134.69 -173.66,183.34 -33.95,42.56 -83.28,80.51 -113.65,125.86z"/>
  <path class="fil2" d="M1138.13 4951.96c19.65,-13.15 45.82,-43.52 64.46,-62.07l90.51 -99.28c9.68,-11.58 20.57,-20.98 31.44,-31.84 11.07,-11.07 21.48,-20.18 31.59,-31.67 12.06,-13.69 15.52,-20.25 29.42,-33.84l370.57 -393.12c13.45,-13.29 17.33,-21.07 29.27,-33.98 39.33,-42.52 119.84,-122.13 155.76,-165.09l644.35 -688.73c10.22,-12.23 22.17,-22.61 33.69,-34.09l153.73 -162.59c12.73,-12.87 16.46,-21.2 29.2,-34.08 11.49,-11.6 20.08,-19.96 31.72,-31.54 14.59,-14.51 18.78,-20.34 31.83,-35.95 36.31,-43.44 87.55,-85.75 123.86,-129.2l127.86 -129.72 0 2476.35c19.8,-13.26 37.56,-35.32 55.36,-53.09 20.78,-20.75 33.82,-38.54 54.22,-58.76 38.92,-38.56 74.23,-74.21 112.98,-112.96 35.62,-35.62 110.11,-106.57 138.29,-141.89l272.26 -274.53c0.64,-0.67 1.57,-1.63 2.22,-2.29 75.92,-75.86 59.69,-67.85 60.64,-233.21 0.22,-37.93 -4.59,-66 -4.58,-108.39 0.06,-211.77 -6.09,-1526.02 2.61,-1583.51 7.67,-50.7 -4.38,-114.36 6.43,-160.77l1025.79 0 0 -614.57 -1238.17 0c-8.43,0 -39.7,27.79 -46.47,34.86l-195.62 229.15c-13.58,17.29 -25.01,30.64 -39.08,46.78l-75.18 92.03c-13.01,15.98 -26.13,29.66 -39.41,46.46 -84.76,107.2 -183.41,218.93 -266.55,325.42l-306.13 371.7c-13.72,16.3 -27,30.8 -39.27,46.58l-347.96 420.26c-12.64,16.19 -25.4,30.14 -38.75,47.11 -50.66,64.45 -103.07,120.61 -153.6,185.32 -12.47,15.97 -23.79,29.6 -36.95,44.38l-348.11 415.58c-99.5,114.12 -198.52,251.12 -304.78,373.06 -33.64,38.6 -223.34,262.78 -229.45,285.69z"/>
  <path class="fil1" d="M776.61 3429.1c8.92,12.17 174.26,127.8 202.42,145.54 18.96,11.95 34.18,19.95 53.32,32.54l53.07 32.78c173.14,93.72 149.48,85.06 356.1,168.1 64.4,25.88 201.83,72.94 284.05,72.94 13.11,0 77.23,-80.06 89.72,-95.56l29.13 -34.13c5.91,-7 9.45,-9.27 15.36,-16.26l205.76 -237.09c7.56,-8.48 6.78,-9.41 13.83,-17.79 11.18,-13.29 18.13,-19.35 29.63,-33.63 24.01,-29.82 71.97,-75.77 86.52,-103.28 -48.52,0 -292.18,-33 -332.65,-42.41 -106.77,-24.82 -187.01,-56.97 -274.39,-100.69 -117.79,-58.94 -250.41,-128.31 -359.11,-201.23 -24.55,-16.47 -93.82,-65.69 -118.38,-71.41 -3.33,12.46 -75.72,106.63 -85.88,121.99l-248.53 379.6z"/>
 </g>
</svg>
